<svg width="1470" height="654" viewBox="0 0 1470 654" fill="none" xmlns="http://www.w3.org/2000/svg">
###{playersData}
<g id="mapa1">
<g id="Polygon 1" filter="url(#filter0_d_109_2)">
<path d="M271 8L331.622 42.75V112.25L271 147L210.378 112.25V42.75L271 8Z" fill="#596271"/>
<path d="M271 8L331.622 42.75V112.25L271 147L210.378 112.25V42.75L271 8Z" stroke="#AAB7CC" stroke-width="8"/>
</g>
<g id="Polygon 21">
<g filter="url(#filter1_i_109_2)">
<path d="M177 114L267.933 166.25V270.75L177 323L86.0673 270.75V166.25L177 114Z" fill="#596271"/>
</g>
<path d="M90.5673 168.854L177 119.19L263.433 168.854V268.146L177 317.81L90.5673 268.146V168.854Z" stroke="#AAB7CC" stroke-width="9"/>
</g>
<g id="Polygon 22">
<g filter="url(#filter2_i_109_2)">
<path d="M105 436L195.933 488.25V592.75L105 645L14.0673 592.75V488.25L105 436Z" fill="#596271"/>
</g>
<path d="M18.5673 490.854L105 441.19L191.433 490.854V590.146L105 639.81L18.5673 590.146V490.854Z" stroke="#AAB7CC" stroke-width="9"/>
</g>
<g id="Polygon 5" filter="url(#filter3_d_109_2)">
<path d="M829.5 8L889.689 42.75V112.25L829.5 147L769.311 112.25V42.75L829.5 8Z" fill="#EFCC4F"/>
<path d="M829.5 8L889.689 42.75V112.25L829.5 147L769.311 112.25V42.75L829.5 8Z" stroke="#AC6700" stroke-width="8"/>
</g>
<g id="Polygon 14" filter="url(#filter4_d_109_2)">
<path d="M690 471L750.622 505.75V575.25L690 610L629.378 575.25V505.75L690 471Z" fill="#596271"/>
<path d="M690 471L750.622 505.75V575.25L690 610L629.378 575.25V505.75L690 471Z" stroke="#AAB7CC" stroke-width="8"/>
</g>
<g id="Polygon 3" filter="url(#filter5_d_109_2)">
<path d="M550 8L610.622 42.75V112.25L550 147L489.378 112.25V42.75L550 8Z" fill="#596271"/>
<path d="M550 8L610.622 42.75V112.25L550 147L489.378 112.25V42.75L550 8Z" stroke="#AAB7CC" stroke-width="8"/>
</g>
<g id="Polygon 15" filter="url(#filter6_d_109_2)">
<path d="M410.5 471L470.689 505.75V575.25L410.5 610L350.311 575.25V505.75L410.5 471Z" fill="#EFCC4F"/>
<path d="M410.5 471L470.689 505.75V575.25L410.5 610L350.311 575.25V505.75L410.5 471Z" stroke="#AC6700" stroke-width="8"/>
</g>
<g id="Polygon 6" filter="url(#filter7_d_109_2)">
<path d="M1108.5 8L1168.69 42.75V112.25L1108.5 147L1048.31 112.25V42.75L1108.5 8Z" fill="#596271"/>
<path d="M1108.5 8L1168.69 42.75V112.25L1108.5 147L1048.31 112.25V42.75L1108.5 8Z" stroke="#AAB7CC" stroke-width="8"/>
</g>
<g id="Polygon 16" filter="url(#filter8_d_109_2)">
<path d="M969 471L1029.62 505.75V575.25L969 610L908.378 575.25V505.75L969 471Z" fill="#EFCC4F"/>
<path d="M969 471L1029.62 505.75V575.25L969 610L908.378 575.25V505.75L969 471Z" stroke="#AC6700" stroke-width="8"/>
</g>
<g id="Polygon 2" filter="url(#filter9_d_109_2)">
<path d="M410.5 8L470.689 42.75V112.25L410.5 147L350.311 112.25V42.75L410.5 8Z" fill="#596271"/>
<path d="M410.5 8L470.689 42.75V112.25L410.5 147L350.311 112.25V42.75L410.5 8Z" stroke="#AAB7CC" stroke-width="8"/>
</g>
<g id="Polygon 17" filter="url(#filter10_d_109_2)">
<path d="M271 471L331.622 505.75V575.25L271 610L210.378 575.25V505.75L271 471Z" fill="#596271"/>
<path d="M271 471L331.622 505.75V575.25L271 610L210.378 575.25V505.75L271 471Z" stroke="#AAB7CC" stroke-width="8"/>
</g>
<g id="Polygon 7" filter="url(#filter11_d_109_2)">
<path d="M969 8L1029.62 42.75V112.25L969 147L908.378 112.25V42.75L969 8Z" fill="#596271"/>
<path d="M969 8L1029.62 42.75V112.25L969 147L908.378 112.25V42.75L969 8Z" stroke="#AAB7CC" stroke-width="8"/>
</g>
<g id="Polygon 18" filter="url(#filter12_d_109_2)">
<path d="M829.5 471L889.689 505.75V575.25L829.5 610L769.311 575.25V505.75L829.5 471Z" fill="#596271"/>
<path d="M829.5 471L889.689 505.75V575.25L829.5 610L769.311 575.25V505.75L829.5 471Z" stroke="#AAB7CC" stroke-width="8"/>
</g>
<g id="Polygon 4" filter="url(#filter13_d_109_2)">
<path d="M690 8L750.622 42.75V112.25L690 147L629.378 112.25V42.75L690 8Z" fill="#596271"/>
<path d="M690 8L750.622 42.75V112.25L690 147L629.378 112.25V42.75L690 8Z" stroke="#AAB7CC" stroke-width="8"/>
</g>
<g id="Polygon 19" filter="url(#filter14_d_109_2)">
<path d="M550 471L610.622 505.75V575.25L550 610L489.378 575.25V505.75L550 471Z" fill="#596271"/>
<path d="M550 471L610.622 505.75V575.25L550 610L489.378 575.25V505.75L550 471Z" stroke="#AAB7CC" stroke-width="8"/>
</g>
<g id="Polygon 8" filter="url(#filter15_d_109_2)">
<path d="M1248 8L1308.62 42.75V112.25L1248 147L1187.38 112.25V42.75L1248 8Z" fill="#596271"/>
<path d="M1248 8L1308.62 42.75V112.25L1248 147L1187.38 112.25V42.75L1248 8Z" stroke="#AAB7CC" stroke-width="8"/>
</g>
<g id="Polygon 20" filter="url(#filter16_d_109_2)">
<path d="M1108.5 471L1168.69 505.75V575.25L1108.5 610L1048.31 575.25V505.75L1108.5 471Z" fill="#596271"/>
<path d="M1108.5 471L1168.69 505.75V575.25L1108.5 610L1048.31 575.25V505.75L1108.5 471Z" stroke="#AAB7CC" stroke-width="8"/>
</g>
<g id="Polygon 9" filter="url(#filter17_d_109_2)">
<path d="M1318 125L1378.62 160V230L1318 265L1257.38 230V160L1318 125Z" fill="#EFCC4F"/>
<path d="M1318 125L1378.62 160V230L1318 265L1257.38 230V160L1318 125Z" stroke="#AC6700" stroke-width="8"/>
</g>
<g id="Polygon 10" filter="url(#filter18_d_109_2)">
<path d="M1384 240L1444.62 275V345L1384 380L1323.38 345V275L1384 240Z" fill="#596271"/>
<path d="M1384 240L1444.62 275V345L1384 380L1323.38 345V275L1384 240Z" stroke="#AAB7CC" stroke-width="8"/>
</g>
<g id="Polygon 11" filter="url(#filter19_d_109_2)">
<path d="M1317 355L1377.62 390V460L1317 495L1256.38 460V390L1317 355Z" fill="#596271"/>
<path d="M1317 355L1377.62 390V460L1317 495L1256.38 460V390L1317 355Z" stroke="#AAB7CC" stroke-width="8"/>
</g>
<g id="Polygon 12" filter="url(#filter20_d_109_2)">
<path d="M1248 471L1308.62 505.75V575.25L1248 610L1187.38 575.25V505.75L1248 471Z" fill="#596271"/>
<path d="M1248 471L1308.62 505.75V575.25L1248 610L1187.38 575.25V505.75L1248 471Z" stroke="#AAB7CC" stroke-width="8"/>
</g>
<path id="Ellipse 1" d="M686 40C686 57.6731 671.673 72 654 72C636.327 72 622 57.6731 622 40C622 22.3269 636.327 8 654 8C671.673 8 686 22.3269 686 40Z" fill="url(#paint0_linear_109_2)" stroke="#9B0000" stroke-width="8"/>
</g>
<defs>
<filter id="filter0_d_109_2" x="185.378" y="0.389404" width="171.244" height="190.221" filterUnits="userSpaceOnUse" color-interpolation-filters="sRGB">
<feFlood flood-opacity="0" result="BackgroundImageFix"/>
<feColorMatrix in="SourceAlpha" type="matrix" values="0 0 0 0 0 0 0 0 0 0 0 0 0 0 0 0 0 0 127 0" result="hardAlpha"/>
<feOffset dy="18"/>
<feGaussianBlur stdDeviation="10.5"/>
<feComposite in2="hardAlpha" operator="out"/>
<feColorMatrix type="matrix" values="0 0 0 0 0 0 0 0 0 0 0 0 0 0 0 0 0 0 0.21 0"/>
<feBlend mode="normal" in2="BackgroundImageFix" result="effect1_dropShadow_109_2"/>
<feBlend mode="normal" in="SourceGraphic" in2="effect1_dropShadow_109_2" result="shape"/>
</filter>
<filter id="filter1_i_109_2" x="86.0673" y="114" width="181.865" height="209" filterUnits="userSpaceOnUse" color-interpolation-filters="sRGB">
<feFlood flood-opacity="0" result="BackgroundImageFix"/>
<feBlend mode="normal" in="SourceGraphic" in2="BackgroundImageFix" result="shape"/>
<feColorMatrix in="SourceAlpha" type="matrix" values="0 0 0 0 0 0 0 0 0 0 0 0 0 0 0 0 0 0 127 0" result="hardAlpha"/>
<feOffset/>
<feGaussianBlur stdDeviation="23"/>
<feComposite in2="hardAlpha" operator="arithmetic" k2="-1" k3="1"/>
<feColorMatrix type="matrix" values="0 0 0 0 0 0 0 0 0 0 0 0 0 0 0 0 0 0 1 0"/>
<feBlend mode="normal" in2="shape" result="effect1_innerShadow_109_2"/>
</filter>
<filter id="filter2_i_109_2" x="14.0673" y="436" width="181.865" height="209" filterUnits="userSpaceOnUse" color-interpolation-filters="sRGB">
<feFlood flood-opacity="0" result="BackgroundImageFix"/>
<feBlend mode="normal" in="SourceGraphic" in2="BackgroundImageFix" result="shape"/>
<feColorMatrix in="SourceAlpha" type="matrix" values="0 0 0 0 0 0 0 0 0 0 0 0 0 0 0 0 0 0 127 0" result="hardAlpha"/>
<feOffset/>
<feGaussianBlur stdDeviation="23"/>
<feComposite in2="hardAlpha" operator="arithmetic" k2="-1" k3="1"/>
<feColorMatrix type="matrix" values="0 0 0 0 0 0 0 0 0 0 0 0 0 0 0 0 0 0 1 0"/>
<feBlend mode="normal" in2="shape" result="effect1_innerShadow_109_2"/>
</filter>
<filter id="filter3_d_109_2" x="744.311" y="0.381226" width="170.378" height="190.238" filterUnits="userSpaceOnUse" color-interpolation-filters="sRGB">
<feFlood flood-opacity="0" result="BackgroundImageFix"/>
<feColorMatrix in="SourceAlpha" type="matrix" values="0 0 0 0 0 0 0 0 0 0 0 0 0 0 0 0 0 0 127 0" result="hardAlpha"/>
<feOffset dy="18"/>
<feGaussianBlur stdDeviation="10.5"/>
<feComposite in2="hardAlpha" operator="out"/>
<feColorMatrix type="matrix" values="0 0 0 0 0 0 0 0 0 0 0 0 0 0 0 0 0 0 0.21 0"/>
<feBlend mode="normal" in2="BackgroundImageFix" result="effect1_dropShadow_109_2"/>
<feBlend mode="normal" in="SourceGraphic" in2="effect1_dropShadow_109_2" result="shape"/>
</filter>
<filter id="filter4_d_109_2" x="604.378" y="463.389" width="171.244" height="190.221" filterUnits="userSpaceOnUse" color-interpolation-filters="sRGB">
<feFlood flood-opacity="0" result="BackgroundImageFix"/>
<feColorMatrix in="SourceAlpha" type="matrix" values="0 0 0 0 0 0 0 0 0 0 0 0 0 0 0 0 0 0 127 0" result="hardAlpha"/>
<feOffset dy="18"/>
<feGaussianBlur stdDeviation="10.5"/>
<feComposite in2="hardAlpha" operator="out"/>
<feColorMatrix type="matrix" values="0 0 0 0 0 0 0 0 0 0 0 0 0 0 0 0 0 0 0.21 0"/>
<feBlend mode="normal" in2="BackgroundImageFix" result="effect1_dropShadow_109_2"/>
<feBlend mode="normal" in="SourceGraphic" in2="effect1_dropShadow_109_2" result="shape"/>
</filter>
<filter id="filter5_d_109_2" x="464.378" y="0.389404" width="171.244" height="190.221" filterUnits="userSpaceOnUse" color-interpolation-filters="sRGB">
<feFlood flood-opacity="0" result="BackgroundImageFix"/>
<feColorMatrix in="SourceAlpha" type="matrix" values="0 0 0 0 0 0 0 0 0 0 0 0 0 0 0 0 0 0 127 0" result="hardAlpha"/>
<feOffset dy="18"/>
<feGaussianBlur stdDeviation="10.5"/>
<feComposite in2="hardAlpha" operator="out"/>
<feColorMatrix type="matrix" values="0 0 0 0 0 0 0 0 0 0 0 0 0 0 0 0 0 0 0.21 0"/>
<feBlend mode="normal" in2="BackgroundImageFix" result="effect1_dropShadow_109_2"/>
<feBlend mode="normal" in="SourceGraphic" in2="effect1_dropShadow_109_2" result="shape"/>
</filter>
<filter id="filter6_d_109_2" x="325.311" y="463.381" width="170.378" height="190.238" filterUnits="userSpaceOnUse" color-interpolation-filters="sRGB">
<feFlood flood-opacity="0" result="BackgroundImageFix"/>
<feColorMatrix in="SourceAlpha" type="matrix" values="0 0 0 0 0 0 0 0 0 0 0 0 0 0 0 0 0 0 127 0" result="hardAlpha"/>
<feOffset dy="18"/>
<feGaussianBlur stdDeviation="10.5"/>
<feComposite in2="hardAlpha" operator="out"/>
<feColorMatrix type="matrix" values="0 0 0 0 0 0 0 0 0 0 0 0 0 0 0 0 0 0 0.21 0"/>
<feBlend mode="normal" in2="BackgroundImageFix" result="effect1_dropShadow_109_2"/>
<feBlend mode="normal" in="SourceGraphic" in2="effect1_dropShadow_109_2" result="shape"/>
</filter>
<filter id="filter7_d_109_2" x="1023.31" y="0.381226" width="170.378" height="190.238" filterUnits="userSpaceOnUse" color-interpolation-filters="sRGB">
<feFlood flood-opacity="0" result="BackgroundImageFix"/>
<feColorMatrix in="SourceAlpha" type="matrix" values="0 0 0 0 0 0 0 0 0 0 0 0 0 0 0 0 0 0 127 0" result="hardAlpha"/>
<feOffset dy="18"/>
<feGaussianBlur stdDeviation="10.5"/>
<feComposite in2="hardAlpha" operator="out"/>
<feColorMatrix type="matrix" values="0 0 0 0 0 0 0 0 0 0 0 0 0 0 0 0 0 0 0.21 0"/>
<feBlend mode="normal" in2="BackgroundImageFix" result="effect1_dropShadow_109_2"/>
<feBlend mode="normal" in="SourceGraphic" in2="effect1_dropShadow_109_2" result="shape"/>
</filter>
<filter id="filter8_d_109_2" x="883.378" y="463.389" width="171.244" height="190.221" filterUnits="userSpaceOnUse" color-interpolation-filters="sRGB">
<feFlood flood-opacity="0" result="BackgroundImageFix"/>
<feColorMatrix in="SourceAlpha" type="matrix" values="0 0 0 0 0 0 0 0 0 0 0 0 0 0 0 0 0 0 127 0" result="hardAlpha"/>
<feOffset dy="18"/>
<feGaussianBlur stdDeviation="10.5"/>
<feComposite in2="hardAlpha" operator="out"/>
<feColorMatrix type="matrix" values="0 0 0 0 0 0 0 0 0 0 0 0 0 0 0 0 0 0 0.21 0"/>
<feBlend mode="normal" in2="BackgroundImageFix" result="effect1_dropShadow_109_2"/>
<feBlend mode="normal" in="SourceGraphic" in2="effect1_dropShadow_109_2" result="shape"/>
</filter>
<filter id="filter9_d_109_2" x="325.311" y="0.381226" width="170.378" height="190.238" filterUnits="userSpaceOnUse" color-interpolation-filters="sRGB">
<feFlood flood-opacity="0" result="BackgroundImageFix"/>
<feColorMatrix in="SourceAlpha" type="matrix" values="0 0 0 0 0 0 0 0 0 0 0 0 0 0 0 0 0 0 127 0" result="hardAlpha"/>
<feOffset dy="18"/>
<feGaussianBlur stdDeviation="10.5"/>
<feComposite in2="hardAlpha" operator="out"/>
<feColorMatrix type="matrix" values="0 0 0 0 0 0 0 0 0 0 0 0 0 0 0 0 0 0 0.21 0"/>
<feBlend mode="normal" in2="BackgroundImageFix" result="effect1_dropShadow_109_2"/>
<feBlend mode="normal" in="SourceGraphic" in2="effect1_dropShadow_109_2" result="shape"/>
</filter>
<filter id="filter10_d_109_2" x="185.378" y="463.389" width="171.244" height="190.221" filterUnits="userSpaceOnUse" color-interpolation-filters="sRGB">
<feFlood flood-opacity="0" result="BackgroundImageFix"/>
<feColorMatrix in="SourceAlpha" type="matrix" values="0 0 0 0 0 0 0 0 0 0 0 0 0 0 0 0 0 0 127 0" result="hardAlpha"/>
<feOffset dy="18"/>
<feGaussianBlur stdDeviation="10.5"/>
<feComposite in2="hardAlpha" operator="out"/>
<feColorMatrix type="matrix" values="0 0 0 0 0 0 0 0 0 0 0 0 0 0 0 0 0 0 0.21 0"/>
<feBlend mode="normal" in2="BackgroundImageFix" result="effect1_dropShadow_109_2"/>
<feBlend mode="normal" in="SourceGraphic" in2="effect1_dropShadow_109_2" result="shape"/>
</filter>
<filter id="filter11_d_109_2" x="883.378" y="0.389404" width="171.244" height="190.221" filterUnits="userSpaceOnUse" color-interpolation-filters="sRGB">
<feFlood flood-opacity="0" result="BackgroundImageFix"/>
<feColorMatrix in="SourceAlpha" type="matrix" values="0 0 0 0 0 0 0 0 0 0 0 0 0 0 0 0 0 0 127 0" result="hardAlpha"/>
<feOffset dy="18"/>
<feGaussianBlur stdDeviation="10.5"/>
<feComposite in2="hardAlpha" operator="out"/>
<feColorMatrix type="matrix" values="0 0 0 0 0 0 0 0 0 0 0 0 0 0 0 0 0 0 0.21 0"/>
<feBlend mode="normal" in2="BackgroundImageFix" result="effect1_dropShadow_109_2"/>
<feBlend mode="normal" in="SourceGraphic" in2="effect1_dropShadow_109_2" result="shape"/>
</filter>
<filter id="filter12_d_109_2" x="744.311" y="463.381" width="170.378" height="190.238" filterUnits="userSpaceOnUse" color-interpolation-filters="sRGB">
<feFlood flood-opacity="0" result="BackgroundImageFix"/>
<feColorMatrix in="SourceAlpha" type="matrix" values="0 0 0 0 0 0 0 0 0 0 0 0 0 0 0 0 0 0 127 0" result="hardAlpha"/>
<feOffset dy="18"/>
<feGaussianBlur stdDeviation="10.5"/>
<feComposite in2="hardAlpha" operator="out"/>
<feColorMatrix type="matrix" values="0 0 0 0 0 0 0 0 0 0 0 0 0 0 0 0 0 0 0.21 0"/>
<feBlend mode="normal" in2="BackgroundImageFix" result="effect1_dropShadow_109_2"/>
<feBlend mode="normal" in="SourceGraphic" in2="effect1_dropShadow_109_2" result="shape"/>
</filter>
<filter id="filter13_d_109_2" x="604.378" y="0.389404" width="171.244" height="190.221" filterUnits="userSpaceOnUse" color-interpolation-filters="sRGB">
<feFlood flood-opacity="0" result="BackgroundImageFix"/>
<feColorMatrix in="SourceAlpha" type="matrix" values="0 0 0 0 0 0 0 0 0 0 0 0 0 0 0 0 0 0 127 0" result="hardAlpha"/>
<feOffset dy="18"/>
<feGaussianBlur stdDeviation="10.5"/>
<feComposite in2="hardAlpha" operator="out"/>
<feColorMatrix type="matrix" values="0 0 0 0 0 0 0 0 0 0 0 0 0 0 0 0 0 0 0.21 0"/>
<feBlend mode="normal" in2="BackgroundImageFix" result="effect1_dropShadow_109_2"/>
<feBlend mode="normal" in="SourceGraphic" in2="effect1_dropShadow_109_2" result="shape"/>
</filter>
<filter id="filter14_d_109_2" x="464.378" y="463.389" width="171.244" height="190.221" filterUnits="userSpaceOnUse" color-interpolation-filters="sRGB">
<feFlood flood-opacity="0" result="BackgroundImageFix"/>
<feColorMatrix in="SourceAlpha" type="matrix" values="0 0 0 0 0 0 0 0 0 0 0 0 0 0 0 0 0 0 127 0" result="hardAlpha"/>
<feOffset dy="18"/>
<feGaussianBlur stdDeviation="10.5"/>
<feComposite in2="hardAlpha" operator="out"/>
<feColorMatrix type="matrix" values="0 0 0 0 0 0 0 0 0 0 0 0 0 0 0 0 0 0 0.21 0"/>
<feBlend mode="normal" in2="BackgroundImageFix" result="effect1_dropShadow_109_2"/>
<feBlend mode="normal" in="SourceGraphic" in2="effect1_dropShadow_109_2" result="shape"/>
</filter>
<filter id="filter15_d_109_2" x="1162.38" y="0.389404" width="171.244" height="190.221" filterUnits="userSpaceOnUse" color-interpolation-filters="sRGB">
<feFlood flood-opacity="0" result="BackgroundImageFix"/>
<feColorMatrix in="SourceAlpha" type="matrix" values="0 0 0 0 0 0 0 0 0 0 0 0 0 0 0 0 0 0 127 0" result="hardAlpha"/>
<feOffset dy="18"/>
<feGaussianBlur stdDeviation="10.5"/>
<feComposite in2="hardAlpha" operator="out"/>
<feColorMatrix type="matrix" values="0 0 0 0 0 0 0 0 0 0 0 0 0 0 0 0 0 0 0.21 0"/>
<feBlend mode="normal" in2="BackgroundImageFix" result="effect1_dropShadow_109_2"/>
<feBlend mode="normal" in="SourceGraphic" in2="effect1_dropShadow_109_2" result="shape"/>
</filter>
<filter id="filter16_d_109_2" x="1023.31" y="463.381" width="170.378" height="190.238" filterUnits="userSpaceOnUse" color-interpolation-filters="sRGB">
<feFlood flood-opacity="0" result="BackgroundImageFix"/>
<feColorMatrix in="SourceAlpha" type="matrix" values="0 0 0 0 0 0 0 0 0 0 0 0 0 0 0 0 0 0 127 0" result="hardAlpha"/>
<feOffset dy="18"/>
<feGaussianBlur stdDeviation="10.5"/>
<feComposite in2="hardAlpha" operator="out"/>
<feColorMatrix type="matrix" values="0 0 0 0 0 0 0 0 0 0 0 0 0 0 0 0 0 0 0.21 0"/>
<feBlend mode="normal" in2="BackgroundImageFix" result="effect1_dropShadow_109_2"/>
<feBlend mode="normal" in="SourceGraphic" in2="effect1_dropShadow_109_2" result="shape"/>
</filter>
<filter id="filter17_d_109_2" x="1232.38" y="117.381" width="171.244" height="191.238" filterUnits="userSpaceOnUse" color-interpolation-filters="sRGB">
<feFlood flood-opacity="0" result="BackgroundImageFix"/>
<feColorMatrix in="SourceAlpha" type="matrix" values="0 0 0 0 0 0 0 0 0 0 0 0 0 0 0 0 0 0 127 0" result="hardAlpha"/>
<feOffset dy="18"/>
<feGaussianBlur stdDeviation="10.5"/>
<feComposite in2="hardAlpha" operator="out"/>
<feColorMatrix type="matrix" values="0 0 0 0 0 0 0 0 0 0 0 0 0 0 0 0 0 0 0.21 0"/>
<feBlend mode="normal" in2="BackgroundImageFix" result="effect1_dropShadow_109_2"/>
<feBlend mode="normal" in="SourceGraphic" in2="effect1_dropShadow_109_2" result="shape"/>
</filter>
<filter id="filter18_d_109_2" x="1298.38" y="232.381" width="171.244" height="191.238" filterUnits="userSpaceOnUse" color-interpolation-filters="sRGB">
<feFlood flood-opacity="0" result="BackgroundImageFix"/>
<feColorMatrix in="SourceAlpha" type="matrix" values="0 0 0 0 0 0 0 0 0 0 0 0 0 0 0 0 0 0 127 0" result="hardAlpha"/>
<feOffset dy="18"/>
<feGaussianBlur stdDeviation="10.5"/>
<feComposite in2="hardAlpha" operator="out"/>
<feColorMatrix type="matrix" values="0 0 0 0 0 0 0 0 0 0 0 0 0 0 0 0 0 0 0.21 0"/>
<feBlend mode="normal" in2="BackgroundImageFix" result="effect1_dropShadow_109_2"/>
<feBlend mode="normal" in="SourceGraphic" in2="effect1_dropShadow_109_2" result="shape"/>
</filter>
<filter id="filter19_d_109_2" x="1231.38" y="347.381" width="171.244" height="191.238" filterUnits="userSpaceOnUse" color-interpolation-filters="sRGB">
<feFlood flood-opacity="0" result="BackgroundImageFix"/>
<feColorMatrix in="SourceAlpha" type="matrix" values="0 0 0 0 0 0 0 0 0 0 0 0 0 0 0 0 0 0 127 0" result="hardAlpha"/>
<feOffset dy="18"/>
<feGaussianBlur stdDeviation="10.5"/>
<feComposite in2="hardAlpha" operator="out"/>
<feColorMatrix type="matrix" values="0 0 0 0 0 0 0 0 0 0 0 0 0 0 0 0 0 0 0.21 0"/>
<feBlend mode="normal" in2="BackgroundImageFix" result="effect1_dropShadow_109_2"/>
<feBlend mode="normal" in="SourceGraphic" in2="effect1_dropShadow_109_2" result="shape"/>
</filter>
<filter id="filter20_d_109_2" x="1162.38" y="463.389" width="171.244" height="190.221" filterUnits="userSpaceOnUse" color-interpolation-filters="sRGB">
<feFlood flood-opacity="0" result="BackgroundImageFix"/>
<feColorMatrix in="SourceAlpha" type="matrix" values="0 0 0 0 0 0 0 0 0 0 0 0 0 0 0 0 0 0 127 0" result="hardAlpha"/>
<feOffset dy="18"/>
<feGaussianBlur stdDeviation="10.5"/>
<feComposite in2="hardAlpha" operator="out"/>
<feColorMatrix type="matrix" values="0 0 0 0 0 0 0 0 0 0 0 0 0 0 0 0 0 0 0.21 0"/>
<feBlend mode="normal" in2="BackgroundImageFix" result="effect1_dropShadow_109_2"/>
<feBlend mode="normal" in="SourceGraphic" in2="effect1_dropShadow_109_2" result="shape"/>
</filter>
<linearGradient id="paint0_linear_109_2" x1="654" y1="8" x2="654" y2="61.9429" gradientUnits="userSpaceOnUse">
<stop stop-color="#AB0606"/>
<stop offset="1" stop-color="#D30505"/>
</linearGradient>
</defs>
</svg>
