<svg width="932" height="327" viewBox="0 0 932 327" fill="none" xmlns="http://www.w3.org/2000/svg">
###{playersData}
<g id="mapa1">
<g id="Polygon 1" filter="url(#filter0_d_110_9)">
<path d="M199 8L259.622 42.75V112.25L199 147L138.378 112.25V42.75L199 8Z" fill="#596271"/>
<path d="M199 8L259.622 42.75V112.25L199 147L138.378 112.25V42.75L199 8Z" stroke="#AAB7CC" stroke-width="8"/>
</g>
<g id="Polygon 21">
<g filter="url(#filter1_i_110_9)">
<path d="M105 114L195.933 166.25V270.75L105 323L14.0673 270.75V166.25L105 114Z" fill="#596271"/>
</g>
<path d="M18.5673 168.854L105 119.19L191.433 168.854V268.146L105 317.81L18.5673 268.146V168.854Z" stroke="#AAB7CC" stroke-width="9"/>
</g>
<g id="Polygon 22">
<g filter="url(#filter2_i_110_9)">
<path d="M827 118L917.933 170.25V274.75L827 327L736.067 274.75V170.25L827 118Z" fill="#596271"/>
</g>
<path d="M740.567 172.854L827 123.19L913.433 172.854V272.146L827 321.81L740.567 272.146V172.854Z" stroke="#AAB7CC" stroke-width="9"/>
</g>
<g id="Polygon 5" filter="url(#filter3_d_110_9)">
<path d="M757.5 8L817.689 42.75V112.25L757.5 147L697.311 112.25V42.75L757.5 8Z" fill="#EFCC4F"/>
<path d="M757.5 8L817.689 42.75V112.25L757.5 147L697.311 112.25V42.75L757.5 8Z" stroke="#AC6700" stroke-width="8"/>
</g>
<g id="Polygon 3" filter="url(#filter4_d_110_9)">
<path d="M478 8L538.622 42.75V112.25L478 147L417.378 112.25V42.75L478 8Z" fill="#596271"/>
<path d="M478 8L538.622 42.75V112.25L478 147L417.378 112.25V42.75L478 8Z" stroke="#AAB7CC" stroke-width="8"/>
</g>
<g id="Polygon 2" filter="url(#filter5_d_110_9)">
<path d="M338.5 8L398.689 42.75V112.25L338.5 147L278.311 112.25V42.75L338.5 8Z" fill="#596271"/>
<path d="M338.5 8L398.689 42.75V112.25L338.5 147L278.311 112.25V42.75L338.5 8Z" stroke="#AAB7CC" stroke-width="8"/>
</g>
<g id="Polygon 4" filter="url(#filter6_d_110_9)">
<path d="M618 8L678.622 42.75V112.25L618 147L557.378 112.25V42.75L618 8Z" fill="#596271"/>
<path d="M618 8L678.622 42.75V112.25L618 147L557.378 112.25V42.75L618 8Z" stroke="#AAB7CC" stroke-width="8"/>
</g>
<path id="Ellipse 1" d="M614 40C614 57.6731 599.673 72 582 72C564.327 72 550 57.6731 550 40C550 22.3269 564.327 8 582 8C599.673 8 614 22.3269 614 40Z" fill="url(#paint0_linear_110_9)" stroke="#9B0000" stroke-width="8"/>
</g>
<defs>
<filter id="filter0_d_110_9" x="113.378" y="0.389404" width="171.244" height="190.221" filterUnits="userSpaceOnUse" color-interpolation-filters="sRGB">
<feFlood flood-opacity="0" result="BackgroundImageFix"/>
<feColorMatrix in="SourceAlpha" type="matrix" values="0 0 0 0 0 0 0 0 0 0 0 0 0 0 0 0 0 0 127 0" result="hardAlpha"/>
<feOffset dy="18"/>
<feGaussianBlur stdDeviation="10.5"/>
<feComposite in2="hardAlpha" operator="out"/>
<feColorMatrix type="matrix" values="0 0 0 0 0 0 0 0 0 0 0 0 0 0 0 0 0 0 0.21 0"/>
<feBlend mode="normal" in2="BackgroundImageFix" result="effect1_dropShadow_110_9"/>
<feBlend mode="normal" in="SourceGraphic" in2="effect1_dropShadow_110_9" result="shape"/>
</filter>
<filter id="filter1_i_110_9" x="14.0673" y="114" width="181.865" height="209" filterUnits="userSpaceOnUse" color-interpolation-filters="sRGB">
<feFlood flood-opacity="0" result="BackgroundImageFix"/>
<feBlend mode="normal" in="SourceGraphic" in2="BackgroundImageFix" result="shape"/>
<feColorMatrix in="SourceAlpha" type="matrix" values="0 0 0 0 0 0 0 0 0 0 0 0 0 0 0 0 0 0 127 0" result="hardAlpha"/>
<feOffset/>
<feGaussianBlur stdDeviation="23"/>
<feComposite in2="hardAlpha" operator="arithmetic" k2="-1" k3="1"/>
<feColorMatrix type="matrix" values="0 0 0 0 0 0 0 0 0 0 0 0 0 0 0 0 0 0 1 0"/>
<feBlend mode="normal" in2="shape" result="effect1_innerShadow_110_9"/>
</filter>
<filter id="filter2_i_110_9" x="736.067" y="118" width="181.865" height="209" filterUnits="userSpaceOnUse" color-interpolation-filters="sRGB">
<feFlood flood-opacity="0" result="BackgroundImageFix"/>
<feBlend mode="normal" in="SourceGraphic" in2="BackgroundImageFix" result="shape"/>
<feColorMatrix in="SourceAlpha" type="matrix" values="0 0 0 0 0 0 0 0 0 0 0 0 0 0 0 0 0 0 127 0" result="hardAlpha"/>
<feOffset/>
<feGaussianBlur stdDeviation="23"/>
<feComposite in2="hardAlpha" operator="arithmetic" k2="-1" k3="1"/>
<feColorMatrix type="matrix" values="0 0 0 0 0 0 0 0 0 0 0 0 0 0 0 0 0 0 1 0"/>
<feBlend mode="normal" in2="shape" result="effect1_innerShadow_110_9"/>
</filter>
<filter id="filter3_d_110_9" x="672.311" y="0.381226" width="170.378" height="190.238" filterUnits="userSpaceOnUse" color-interpolation-filters="sRGB">
<feFlood flood-opacity="0" result="BackgroundImageFix"/>
<feColorMatrix in="SourceAlpha" type="matrix" values="0 0 0 0 0 0 0 0 0 0 0 0 0 0 0 0 0 0 127 0" result="hardAlpha"/>
<feOffset dy="18"/>
<feGaussianBlur stdDeviation="10.5"/>
<feComposite in2="hardAlpha" operator="out"/>
<feColorMatrix type="matrix" values="0 0 0 0 0 0 0 0 0 0 0 0 0 0 0 0 0 0 0.21 0"/>
<feBlend mode="normal" in2="BackgroundImageFix" result="effect1_dropShadow_110_9"/>
<feBlend mode="normal" in="SourceGraphic" in2="effect1_dropShadow_110_9" result="shape"/>
</filter>
<filter id="filter4_d_110_9" x="392.378" y="0.389404" width="171.244" height="190.221" filterUnits="userSpaceOnUse" color-interpolation-filters="sRGB">
<feFlood flood-opacity="0" result="BackgroundImageFix"/>
<feColorMatrix in="SourceAlpha" type="matrix" values="0 0 0 0 0 0 0 0 0 0 0 0 0 0 0 0 0 0 127 0" result="hardAlpha"/>
<feOffset dy="18"/>
<feGaussianBlur stdDeviation="10.5"/>
<feComposite in2="hardAlpha" operator="out"/>
<feColorMatrix type="matrix" values="0 0 0 0 0 0 0 0 0 0 0 0 0 0 0 0 0 0 0.21 0"/>
<feBlend mode="normal" in2="BackgroundImageFix" result="effect1_dropShadow_110_9"/>
<feBlend mode="normal" in="SourceGraphic" in2="effect1_dropShadow_110_9" result="shape"/>
</filter>
<filter id="filter5_d_110_9" x="253.311" y="0.381226" width="170.378" height="190.238" filterUnits="userSpaceOnUse" color-interpolation-filters="sRGB">
<feFlood flood-opacity="0" result="BackgroundImageFix"/>
<feColorMatrix in="SourceAlpha" type="matrix" values="0 0 0 0 0 0 0 0 0 0 0 0 0 0 0 0 0 0 127 0" result="hardAlpha"/>
<feOffset dy="18"/>
<feGaussianBlur stdDeviation="10.5"/>
<feComposite in2="hardAlpha" operator="out"/>
<feColorMatrix type="matrix" values="0 0 0 0 0 0 0 0 0 0 0 0 0 0 0 0 0 0 0.21 0"/>
<feBlend mode="normal" in2="BackgroundImageFix" result="effect1_dropShadow_110_9"/>
<feBlend mode="normal" in="SourceGraphic" in2="effect1_dropShadow_110_9" result="shape"/>
</filter>
<filter id="filter6_d_110_9" x="532.378" y="0.389404" width="171.244" height="190.221" filterUnits="userSpaceOnUse" color-interpolation-filters="sRGB">
<feFlood flood-opacity="0" result="BackgroundImageFix"/>
<feColorMatrix in="SourceAlpha" type="matrix" values="0 0 0 0 0 0 0 0 0 0 0 0 0 0 0 0 0 0 127 0" result="hardAlpha"/>
<feOffset dy="18"/>
<feGaussianBlur stdDeviation="10.5"/>
<feComposite in2="hardAlpha" operator="out"/>
<feColorMatrix type="matrix" values="0 0 0 0 0 0 0 0 0 0 0 0 0 0 0 0 0 0 0.21 0"/>
<feBlend mode="normal" in2="BackgroundImageFix" result="effect1_dropShadow_110_9"/>
<feBlend mode="normal" in="SourceGraphic" in2="effect1_dropShadow_110_9" result="shape"/>
</filter>
<linearGradient id="paint0_linear_110_9" x1="582" y1="8" x2="582" y2="61.9429" gradientUnits="userSpaceOnUse">
<stop stop-color="#AB0606"/>
<stop offset="1" stop-color="#D30505"/>
</linearGradient>
</defs>
</svg>
