<svg width="1556" height="654" viewBox="0 0 1556 654" fill="none" xmlns="http://www.w3.org/2000/svg">
###{playersData}
<g id="mapa1">
<g id="Polygon 1" filter="url(#filter0_d_117_3)">
<path d="M271 8L331.622 42.75V112.25L271 147L210.378 112.25V42.75L271 8Z" fill="#596271"/>
<path d="M271 8L331.622 42.75V112.25L271 147L210.378 112.25V42.75L271 8Z" stroke="#AAB7CC" stroke-width="8"/>
</g>
<g id="Polygon 21">
<g filter="url(#filter1_i_117_3)">
<path d="M177 114L267.933 166.25V270.75L177 323L86.0673 270.75V166.25L177 114Z" fill="#596271"/>
</g>
<path d="M90.5673 168.854L177 119.19L263.433 168.854V268.146L177 317.81L90.5673 268.146V168.854Z" stroke="#AAB7CC" stroke-width="9"/>
</g>
<g id="Polygon 22">
<g filter="url(#filter2_i_117_3)">
<path d="M105 436L195.933 488.25V592.75L105 645L14.0673 592.75V488.25L105 436Z" fill="#596271"/>
</g>
<path d="M18.5673 490.854L105 441.19L191.433 490.854V590.146L105 639.81L18.5673 590.146V490.854Z" stroke="#AAB7CC" stroke-width="9"/>
</g>
<g id="Polygon 5" filter="url(#filter3_d_117_3)">
<path d="M829.5 8L889.689 42.75V112.25L829.5 147L769.311 112.25V42.75L829.5 8Z" fill="#EFCC4F"/>
<path d="M829.5 8L889.689 42.75V112.25L829.5 147L769.311 112.25V42.75L829.5 8Z" stroke="#AC6700" stroke-width="8"/>
</g>
<g id="Polygon 24" filter="url(#filter4_d_117_3)">
<path d="M1039.5 125L1099.69 159.75V229.25L1039.5 264L979.311 229.25V159.75L1039.5 125Z" fill="#EFCC4F"/>
<path d="M1039.5 125L1099.69 159.75V229.25L1039.5 264L979.311 229.25V159.75L1039.5 125Z" stroke="#AC6700" stroke-width="8"/>
</g>
<g id="Polygon 3" filter="url(#filter5_d_117_3)">
<path d="M619 126L679.622 160.75V230.25L619 265L558.378 230.25V160.75L619 126Z" fill="#596271"/>
<path d="M619 126L679.622 160.75V230.25L619 265L558.378 230.25V160.75L619 126Z" stroke="#AAB7CC" stroke-width="8"/>
</g>
<g id="Polygon 15" filter="url(#filter6_d_117_3)">
<path d="M410.5 471L470.689 505.75V575.25L410.5 610L350.311 575.25V505.75L410.5 471Z" fill="#EFCC4F"/>
<path d="M410.5 471L470.689 505.75V575.25L410.5 610L350.311 575.25V505.75L410.5 471Z" stroke="#AC6700" stroke-width="8"/>
</g>
<g id="Polygon 26" filter="url(#filter7_d_117_3)">
<path d="M621.5 355L681.689 389.75V459.25L621.5 494L561.311 459.25V389.75L621.5 355Z" fill="#EFCC4F"/>
<path d="M621.5 355L681.689 389.75V459.25L621.5 494L561.311 459.25V389.75L621.5 355Z" stroke="#AC6700" stroke-width="8"/>
</g>
<g id="Polygon 27" filter="url(#filter8_d_117_3)">
<path d="M758.5 355L818.689 389.75V459.25L758.5 494L698.311 459.25V389.75L758.5 355Z" fill="#EFCC4F"/>
<path d="M758.5 355L818.689 389.75V459.25L758.5 494L698.311 459.25V389.75L758.5 355Z" stroke="#AC6700" stroke-width="8"/>
</g>
<g id="Polygon 16" filter="url(#filter9_d_117_3)">
<path d="M969 471L1029.62 505.75V575.25L969 610L908.378 575.25V505.75L969 471Z" fill="#EFCC4F"/>
<path d="M969 471L1029.62 505.75V575.25L969 610L908.378 575.25V505.75L969 471Z" stroke="#AC6700" stroke-width="8"/>
</g>
<g id="Polygon 28" filter="url(#filter10_d_117_3)">
<path d="M1177 355L1237.62 389.75V459.25L1177 494L1116.38 459.25V389.75L1177 355Z" fill="#EFCC4F"/>
<path d="M1177 355L1237.62 389.75V459.25L1177 494L1116.38 459.25V389.75L1177 355Z" stroke="#AC6700" stroke-width="8"/>
</g>
<g id="Polygon 29" filter="url(#filter11_d_117_3)">
<path d="M1470 355L1530.62 389.75V459.25L1470 494L1409.38 459.25V389.75L1470 355Z" fill="#EFCC4F"/>
<path d="M1470 355L1530.62 389.75V459.25L1470 494L1409.38 459.25V389.75L1470 355Z" stroke="#AC6700" stroke-width="8"/>
</g>
<g id="Polygon 2" filter="url(#filter12_d_117_3)">
<path d="M410.5 8L470.689 42.75V112.25L410.5 147L350.311 112.25V42.75L410.5 8Z" fill="#596271"/>
<path d="M410.5 8L470.689 42.75V112.25L410.5 147L350.311 112.25V42.75L410.5 8Z" stroke="#AAB7CC" stroke-width="8"/>
</g>
<g id="Polygon 23" filter="url(#filter13_d_117_3)">
<path d="M479.5 126L539.689 160.75V230.25L479.5 265L419.311 230.25V160.75L479.5 126Z" fill="#596271"/>
<path d="M479.5 126L539.689 160.75V230.25L479.5 265L419.311 230.25V160.75L479.5 126Z" stroke="#AAB7CC" stroke-width="8"/>
</g>
<g id="Polygon 17" filter="url(#filter14_d_117_3)">
<path d="M271 471L331.622 505.75V575.25L271 610L210.378 575.25V505.75L271 471Z" fill="#596271"/>
<path d="M271 471L331.622 505.75V575.25L271 610L210.378 575.25V505.75L271 471Z" stroke="#AAB7CC" stroke-width="8"/>
</g>
<g id="Polygon 7" filter="url(#filter15_d_117_3)">
<path d="M900 126L960.622 160.75V230.25L900 265L839.378 230.25V160.75L900 126Z" fill="#596271"/>
<path d="M900 126L960.622 160.75V230.25L900 265L839.378 230.25V160.75L900 126Z" stroke="#AAB7CC" stroke-width="8"/>
</g>
<g id="Polygon 18" filter="url(#filter16_d_117_3)">
<path d="M829.5 471L889.689 505.75V575.25L829.5 610L769.311 575.25V505.75L829.5 471Z" fill="#596271"/>
<path d="M829.5 471L889.689 505.75V575.25L829.5 610L769.311 575.25V505.75L829.5 471Z" stroke="#AAB7CC" stroke-width="8"/>
</g>
<g id="Polygon 4" filter="url(#filter17_d_117_3)">
<path d="M690 8L750.622 42.75V112.25L690 147L629.378 112.25V42.75L690 8Z" fill="#596271"/>
<path d="M690 8L750.622 42.75V112.25L690 147L629.378 112.25V42.75L690 8Z" stroke="#AAB7CC" stroke-width="8"/>
</g>
<g id="Polygon 19" filter="url(#filter18_d_117_3)">
<path d="M550 471L610.622 505.75V575.25L550 610L489.378 575.25V505.75L550 471Z" fill="#596271"/>
<path d="M550 471L610.622 505.75V575.25L550 610L489.378 575.25V505.75L550 471Z" stroke="#AAB7CC" stroke-width="8"/>
</g>
<g id="Polygon 8" filter="url(#filter19_d_117_3)">
<path d="M1248 8L1308.62 42.75V112.25L1248 147L1187.38 112.25V42.75L1248 8Z" fill="#596271"/>
<path d="M1248 8L1308.62 42.75V112.25L1248 147L1187.38 112.25V42.75L1248 8Z" stroke="#AAB7CC" stroke-width="8"/>
</g>
<g id="Polygon 25" filter="url(#filter20_d_117_3)">
<path d="M1110 8L1170.62 42.75V112.25L1110 147L1049.38 112.25V42.75L1110 8Z" fill="#596271"/>
<path d="M1110 8L1170.62 42.75V112.25L1110 147L1049.38 112.25V42.75L1110 8Z" stroke="#AAB7CC" stroke-width="8"/>
</g>
<g id="Polygon 20" filter="url(#filter21_d_117_3)">
<path d="M1040.5 355L1100.69 389.75V459.25L1040.5 494L980.311 459.25V389.75L1040.5 355Z" fill="#596271"/>
<path d="M1040.5 355L1100.69 389.75V459.25L1040.5 494L980.311 459.25V389.75L1040.5 355Z" stroke="#AAB7CC" stroke-width="8"/>
</g>
<g id="Polygon 9" filter="url(#filter22_d_117_3)">
<path d="M1318 125L1378.62 160V230L1318 265L1257.38 230V160L1318 125Z" fill="#EFCC4F"/>
<path d="M1318 125L1378.62 160V230L1318 265L1257.38 230V160L1318 125Z" stroke="#AC6700" stroke-width="8"/>
</g>
<g id="Polygon 10" filter="url(#filter23_d_117_3)">
<path d="M1384 240L1444.62 275V345L1384 380L1323.38 345V275L1384 240Z" fill="#596271"/>
<path d="M1384 240L1444.62 275V345L1384 380L1323.38 345V275L1384 240Z" stroke="#AAB7CC" stroke-width="8"/>
</g>
<g id="Polygon 11" filter="url(#filter24_d_117_3)">
<path d="M1386 470L1446.62 505V575L1386 610L1325.38 575V505L1386 470Z" fill="#596271"/>
<path d="M1386 470L1446.62 505V575L1386 610L1325.38 575V505L1386 470Z" stroke="#AAB7CC" stroke-width="8"/>
</g>
<g id="Polygon 12" filter="url(#filter25_d_117_3)">
<path d="M1248 471L1308.62 505.75V575.25L1248 610L1187.38 575.25V505.75L1248 471Z" fill="#596271"/>
<path d="M1248 471L1308.62 505.75V575.25L1248 610L1187.38 575.25V505.75L1248 471Z" stroke="#AAB7CC" stroke-width="8"/>
</g>
</g>
<defs>
<filter id="filter0_d_117_3" x="185.378" y="0.389404" width="171.244" height="190.221" filterUnits="userSpaceOnUse" color-interpolation-filters="sRGB">
<feFlood flood-opacity="0" result="BackgroundImageFix"/>
<feColorMatrix in="SourceAlpha" type="matrix" values="0 0 0 0 0 0 0 0 0 0 0 0 0 0 0 0 0 0 127 0" result="hardAlpha"/>
<feOffset dy="18"/>
<feGaussianBlur stdDeviation="10.5"/>
<feComposite in2="hardAlpha" operator="out"/>
<feColorMatrix type="matrix" values="0 0 0 0 0 0 0 0 0 0 0 0 0 0 0 0 0 0 0.21 0"/>
<feBlend mode="normal" in2="BackgroundImageFix" result="effect1_dropShadow_117_3"/>
<feBlend mode="normal" in="SourceGraphic" in2="effect1_dropShadow_117_3" result="shape"/>
</filter>
<filter id="filter1_i_117_3" x="86.0673" y="114" width="181.865" height="209" filterUnits="userSpaceOnUse" color-interpolation-filters="sRGB">
<feFlood flood-opacity="0" result="BackgroundImageFix"/>
<feBlend mode="normal" in="SourceGraphic" in2="BackgroundImageFix" result="shape"/>
<feColorMatrix in="SourceAlpha" type="matrix" values="0 0 0 0 0 0 0 0 0 0 0 0 0 0 0 0 0 0 127 0" result="hardAlpha"/>
<feOffset/>
<feGaussianBlur stdDeviation="23"/>
<feComposite in2="hardAlpha" operator="arithmetic" k2="-1" k3="1"/>
<feColorMatrix type="matrix" values="0 0 0 0 0 0 0 0 0 0 0 0 0 0 0 0 0 0 1 0"/>
<feBlend mode="normal" in2="shape" result="effect1_innerShadow_117_3"/>
</filter>
<filter id="filter2_i_117_3" x="14.0673" y="436" width="181.865" height="209" filterUnits="userSpaceOnUse" color-interpolation-filters="sRGB">
<feFlood flood-opacity="0" result="BackgroundImageFix"/>
<feBlend mode="normal" in="SourceGraphic" in2="BackgroundImageFix" result="shape"/>
<feColorMatrix in="SourceAlpha" type="matrix" values="0 0 0 0 0 0 0 0 0 0 0 0 0 0 0 0 0 0 127 0" result="hardAlpha"/>
<feOffset/>
<feGaussianBlur stdDeviation="23"/>
<feComposite in2="hardAlpha" operator="arithmetic" k2="-1" k3="1"/>
<feColorMatrix type="matrix" values="0 0 0 0 0 0 0 0 0 0 0 0 0 0 0 0 0 0 1 0"/>
<feBlend mode="normal" in2="shape" result="effect1_innerShadow_117_3"/>
</filter>
<filter id="filter3_d_117_3" x="744.311" y="0.381104" width="170.378" height="190.238" filterUnits="userSpaceOnUse" color-interpolation-filters="sRGB">
<feFlood flood-opacity="0" result="BackgroundImageFix"/>
<feColorMatrix in="SourceAlpha" type="matrix" values="0 0 0 0 0 0 0 0 0 0 0 0 0 0 0 0 0 0 127 0" result="hardAlpha"/>
<feOffset dy="18"/>
<feGaussianBlur stdDeviation="10.5"/>
<feComposite in2="hardAlpha" operator="out"/>
<feColorMatrix type="matrix" values="0 0 0 0 0 0 0 0 0 0 0 0 0 0 0 0 0 0 0.21 0"/>
<feBlend mode="normal" in2="BackgroundImageFix" result="effect1_dropShadow_117_3"/>
<feBlend mode="normal" in="SourceGraphic" in2="effect1_dropShadow_117_3" result="shape"/>
</filter>
<filter id="filter4_d_117_3" x="954.311" y="117.381" width="170.378" height="190.238" filterUnits="userSpaceOnUse" color-interpolation-filters="sRGB">
<feFlood flood-opacity="0" result="BackgroundImageFix"/>
<feColorMatrix in="SourceAlpha" type="matrix" values="0 0 0 0 0 0 0 0 0 0 0 0 0 0 0 0 0 0 127 0" result="hardAlpha"/>
<feOffset dy="18"/>
<feGaussianBlur stdDeviation="10.5"/>
<feComposite in2="hardAlpha" operator="out"/>
<feColorMatrix type="matrix" values="0 0 0 0 0 0 0 0 0 0 0 0 0 0 0 0 0 0 0.21 0"/>
<feBlend mode="normal" in2="BackgroundImageFix" result="effect1_dropShadow_117_3"/>
<feBlend mode="normal" in="SourceGraphic" in2="effect1_dropShadow_117_3" result="shape"/>
</filter>
<filter id="filter5_d_117_3" x="533.378" y="118.389" width="171.244" height="190.221" filterUnits="userSpaceOnUse" color-interpolation-filters="sRGB">
<feFlood flood-opacity="0" result="BackgroundImageFix"/>
<feColorMatrix in="SourceAlpha" type="matrix" values="0 0 0 0 0 0 0 0 0 0 0 0 0 0 0 0 0 0 127 0" result="hardAlpha"/>
<feOffset dy="18"/>
<feGaussianBlur stdDeviation="10.5"/>
<feComposite in2="hardAlpha" operator="out"/>
<feColorMatrix type="matrix" values="0 0 0 0 0 0 0 0 0 0 0 0 0 0 0 0 0 0 0.21 0"/>
<feBlend mode="normal" in2="BackgroundImageFix" result="effect1_dropShadow_117_3"/>
<feBlend mode="normal" in="SourceGraphic" in2="effect1_dropShadow_117_3" result="shape"/>
</filter>
<filter id="filter6_d_117_3" x="325.311" y="463.381" width="170.378" height="190.238" filterUnits="userSpaceOnUse" color-interpolation-filters="sRGB">
<feFlood flood-opacity="0" result="BackgroundImageFix"/>
<feColorMatrix in="SourceAlpha" type="matrix" values="0 0 0 0 0 0 0 0 0 0 0 0 0 0 0 0 0 0 127 0" result="hardAlpha"/>
<feOffset dy="18"/>
<feGaussianBlur stdDeviation="10.5"/>
<feComposite in2="hardAlpha" operator="out"/>
<feColorMatrix type="matrix" values="0 0 0 0 0 0 0 0 0 0 0 0 0 0 0 0 0 0 0.21 0"/>
<feBlend mode="normal" in2="BackgroundImageFix" result="effect1_dropShadow_117_3"/>
<feBlend mode="normal" in="SourceGraphic" in2="effect1_dropShadow_117_3" result="shape"/>
</filter>
<filter id="filter7_d_117_3" x="536.311" y="347.381" width="170.378" height="190.238" filterUnits="userSpaceOnUse" color-interpolation-filters="sRGB">
<feFlood flood-opacity="0" result="BackgroundImageFix"/>
<feColorMatrix in="SourceAlpha" type="matrix" values="0 0 0 0 0 0 0 0 0 0 0 0 0 0 0 0 0 0 127 0" result="hardAlpha"/>
<feOffset dy="18"/>
<feGaussianBlur stdDeviation="10.5"/>
<feComposite in2="hardAlpha" operator="out"/>
<feColorMatrix type="matrix" values="0 0 0 0 0 0 0 0 0 0 0 0 0 0 0 0 0 0 0.21 0"/>
<feBlend mode="normal" in2="BackgroundImageFix" result="effect1_dropShadow_117_3"/>
<feBlend mode="normal" in="SourceGraphic" in2="effect1_dropShadow_117_3" result="shape"/>
</filter>
<filter id="filter8_d_117_3" x="673.311" y="347.381" width="170.378" height="190.238" filterUnits="userSpaceOnUse" color-interpolation-filters="sRGB">
<feFlood flood-opacity="0" result="BackgroundImageFix"/>
<feColorMatrix in="SourceAlpha" type="matrix" values="0 0 0 0 0 0 0 0 0 0 0 0 0 0 0 0 0 0 127 0" result="hardAlpha"/>
<feOffset dy="18"/>
<feGaussianBlur stdDeviation="10.5"/>
<feComposite in2="hardAlpha" operator="out"/>
<feColorMatrix type="matrix" values="0 0 0 0 0 0 0 0 0 0 0 0 0 0 0 0 0 0 0.21 0"/>
<feBlend mode="normal" in2="BackgroundImageFix" result="effect1_dropShadow_117_3"/>
<feBlend mode="normal" in="SourceGraphic" in2="effect1_dropShadow_117_3" result="shape"/>
</filter>
<filter id="filter9_d_117_3" x="883.378" y="463.389" width="171.244" height="190.221" filterUnits="userSpaceOnUse" color-interpolation-filters="sRGB">
<feFlood flood-opacity="0" result="BackgroundImageFix"/>
<feColorMatrix in="SourceAlpha" type="matrix" values="0 0 0 0 0 0 0 0 0 0 0 0 0 0 0 0 0 0 127 0" result="hardAlpha"/>
<feOffset dy="18"/>
<feGaussianBlur stdDeviation="10.5"/>
<feComposite in2="hardAlpha" operator="out"/>
<feColorMatrix type="matrix" values="0 0 0 0 0 0 0 0 0 0 0 0 0 0 0 0 0 0 0.21 0"/>
<feBlend mode="normal" in2="BackgroundImageFix" result="effect1_dropShadow_117_3"/>
<feBlend mode="normal" in="SourceGraphic" in2="effect1_dropShadow_117_3" result="shape"/>
</filter>
<filter id="filter10_d_117_3" x="1091.38" y="347.389" width="171.244" height="190.221" filterUnits="userSpaceOnUse" color-interpolation-filters="sRGB">
<feFlood flood-opacity="0" result="BackgroundImageFix"/>
<feColorMatrix in="SourceAlpha" type="matrix" values="0 0 0 0 0 0 0 0 0 0 0 0 0 0 0 0 0 0 127 0" result="hardAlpha"/>
<feOffset dy="18"/>
<feGaussianBlur stdDeviation="10.5"/>
<feComposite in2="hardAlpha" operator="out"/>
<feColorMatrix type="matrix" values="0 0 0 0 0 0 0 0 0 0 0 0 0 0 0 0 0 0 0.21 0"/>
<feBlend mode="normal" in2="BackgroundImageFix" result="effect1_dropShadow_117_3"/>
<feBlend mode="normal" in="SourceGraphic" in2="effect1_dropShadow_117_3" result="shape"/>
</filter>
<filter id="filter11_d_117_3" x="1384.38" y="347.389" width="171.244" height="190.221" filterUnits="userSpaceOnUse" color-interpolation-filters="sRGB">
<feFlood flood-opacity="0" result="BackgroundImageFix"/>
<feColorMatrix in="SourceAlpha" type="matrix" values="0 0 0 0 0 0 0 0 0 0 0 0 0 0 0 0 0 0 127 0" result="hardAlpha"/>
<feOffset dy="18"/>
<feGaussianBlur stdDeviation="10.5"/>
<feComposite in2="hardAlpha" operator="out"/>
<feColorMatrix type="matrix" values="0 0 0 0 0 0 0 0 0 0 0 0 0 0 0 0 0 0 0.21 0"/>
<feBlend mode="normal" in2="BackgroundImageFix" result="effect1_dropShadow_117_3"/>
<feBlend mode="normal" in="SourceGraphic" in2="effect1_dropShadow_117_3" result="shape"/>
</filter>
<filter id="filter12_d_117_3" x="325.311" y="0.381104" width="170.378" height="190.238" filterUnits="userSpaceOnUse" color-interpolation-filters="sRGB">
<feFlood flood-opacity="0" result="BackgroundImageFix"/>
<feColorMatrix in="SourceAlpha" type="matrix" values="0 0 0 0 0 0 0 0 0 0 0 0 0 0 0 0 0 0 127 0" result="hardAlpha"/>
<feOffset dy="18"/>
<feGaussianBlur stdDeviation="10.5"/>
<feComposite in2="hardAlpha" operator="out"/>
<feColorMatrix type="matrix" values="0 0 0 0 0 0 0 0 0 0 0 0 0 0 0 0 0 0 0.21 0"/>
<feBlend mode="normal" in2="BackgroundImageFix" result="effect1_dropShadow_117_3"/>
<feBlend mode="normal" in="SourceGraphic" in2="effect1_dropShadow_117_3" result="shape"/>
</filter>
<filter id="filter13_d_117_3" x="394.311" y="118.381" width="170.378" height="190.238" filterUnits="userSpaceOnUse" color-interpolation-filters="sRGB">
<feFlood flood-opacity="0" result="BackgroundImageFix"/>
<feColorMatrix in="SourceAlpha" type="matrix" values="0 0 0 0 0 0 0 0 0 0 0 0 0 0 0 0 0 0 127 0" result="hardAlpha"/>
<feOffset dy="18"/>
<feGaussianBlur stdDeviation="10.5"/>
<feComposite in2="hardAlpha" operator="out"/>
<feColorMatrix type="matrix" values="0 0 0 0 0 0 0 0 0 0 0 0 0 0 0 0 0 0 0.21 0"/>
<feBlend mode="normal" in2="BackgroundImageFix" result="effect1_dropShadow_117_3"/>
<feBlend mode="normal" in="SourceGraphic" in2="effect1_dropShadow_117_3" result="shape"/>
</filter>
<filter id="filter14_d_117_3" x="185.378" y="463.389" width="171.244" height="190.221" filterUnits="userSpaceOnUse" color-interpolation-filters="sRGB">
<feFlood flood-opacity="0" result="BackgroundImageFix"/>
<feColorMatrix in="SourceAlpha" type="matrix" values="0 0 0 0 0 0 0 0 0 0 0 0 0 0 0 0 0 0 127 0" result="hardAlpha"/>
<feOffset dy="18"/>
<feGaussianBlur stdDeviation="10.5"/>
<feComposite in2="hardAlpha" operator="out"/>
<feColorMatrix type="matrix" values="0 0 0 0 0 0 0 0 0 0 0 0 0 0 0 0 0 0 0.21 0"/>
<feBlend mode="normal" in2="BackgroundImageFix" result="effect1_dropShadow_117_3"/>
<feBlend mode="normal" in="SourceGraphic" in2="effect1_dropShadow_117_3" result="shape"/>
</filter>
<filter id="filter15_d_117_3" x="814.378" y="118.389" width="171.244" height="190.221" filterUnits="userSpaceOnUse" color-interpolation-filters="sRGB">
<feFlood flood-opacity="0" result="BackgroundImageFix"/>
<feColorMatrix in="SourceAlpha" type="matrix" values="0 0 0 0 0 0 0 0 0 0 0 0 0 0 0 0 0 0 127 0" result="hardAlpha"/>
<feOffset dy="18"/>
<feGaussianBlur stdDeviation="10.5"/>
<feComposite in2="hardAlpha" operator="out"/>
<feColorMatrix type="matrix" values="0 0 0 0 0 0 0 0 0 0 0 0 0 0 0 0 0 0 0.21 0"/>
<feBlend mode="normal" in2="BackgroundImageFix" result="effect1_dropShadow_117_3"/>
<feBlend mode="normal" in="SourceGraphic" in2="effect1_dropShadow_117_3" result="shape"/>
</filter>
<filter id="filter16_d_117_3" x="744.311" y="463.381" width="170.378" height="190.238" filterUnits="userSpaceOnUse" color-interpolation-filters="sRGB">
<feFlood flood-opacity="0" result="BackgroundImageFix"/>
<feColorMatrix in="SourceAlpha" type="matrix" values="0 0 0 0 0 0 0 0 0 0 0 0 0 0 0 0 0 0 127 0" result="hardAlpha"/>
<feOffset dy="18"/>
<feGaussianBlur stdDeviation="10.5"/>
<feComposite in2="hardAlpha" operator="out"/>
<feColorMatrix type="matrix" values="0 0 0 0 0 0 0 0 0 0 0 0 0 0 0 0 0 0 0.21 0"/>
<feBlend mode="normal" in2="BackgroundImageFix" result="effect1_dropShadow_117_3"/>
<feBlend mode="normal" in="SourceGraphic" in2="effect1_dropShadow_117_3" result="shape"/>
</filter>
<filter id="filter17_d_117_3" x="604.378" y="0.389404" width="171.244" height="190.221" filterUnits="userSpaceOnUse" color-interpolation-filters="sRGB">
<feFlood flood-opacity="0" result="BackgroundImageFix"/>
<feColorMatrix in="SourceAlpha" type="matrix" values="0 0 0 0 0 0 0 0 0 0 0 0 0 0 0 0 0 0 127 0" result="hardAlpha"/>
<feOffset dy="18"/>
<feGaussianBlur stdDeviation="10.5"/>
<feComposite in2="hardAlpha" operator="out"/>
<feColorMatrix type="matrix" values="0 0 0 0 0 0 0 0 0 0 0 0 0 0 0 0 0 0 0.21 0"/>
<feBlend mode="normal" in2="BackgroundImageFix" result="effect1_dropShadow_117_3"/>
<feBlend mode="normal" in="SourceGraphic" in2="effect1_dropShadow_117_3" result="shape"/>
</filter>
<filter id="filter18_d_117_3" x="464.378" y="463.389" width="171.244" height="190.221" filterUnits="userSpaceOnUse" color-interpolation-filters="sRGB">
<feFlood flood-opacity="0" result="BackgroundImageFix"/>
<feColorMatrix in="SourceAlpha" type="matrix" values="0 0 0 0 0 0 0 0 0 0 0 0 0 0 0 0 0 0 127 0" result="hardAlpha"/>
<feOffset dy="18"/>
<feGaussianBlur stdDeviation="10.5"/>
<feComposite in2="hardAlpha" operator="out"/>
<feColorMatrix type="matrix" values="0 0 0 0 0 0 0 0 0 0 0 0 0 0 0 0 0 0 0.21 0"/>
<feBlend mode="normal" in2="BackgroundImageFix" result="effect1_dropShadow_117_3"/>
<feBlend mode="normal" in="SourceGraphic" in2="effect1_dropShadow_117_3" result="shape"/>
</filter>
<filter id="filter19_d_117_3" x="1162.38" y="0.389404" width="171.244" height="190.221" filterUnits="userSpaceOnUse" color-interpolation-filters="sRGB">
<feFlood flood-opacity="0" result="BackgroundImageFix"/>
<feColorMatrix in="SourceAlpha" type="matrix" values="0 0 0 0 0 0 0 0 0 0 0 0 0 0 0 0 0 0 127 0" result="hardAlpha"/>
<feOffset dy="18"/>
<feGaussianBlur stdDeviation="10.5"/>
<feComposite in2="hardAlpha" operator="out"/>
<feColorMatrix type="matrix" values="0 0 0 0 0 0 0 0 0 0 0 0 0 0 0 0 0 0 0.21 0"/>
<feBlend mode="normal" in2="BackgroundImageFix" result="effect1_dropShadow_117_3"/>
<feBlend mode="normal" in="SourceGraphic" in2="effect1_dropShadow_117_3" result="shape"/>
</filter>
<filter id="filter20_d_117_3" x="1024.38" y="0.389404" width="171.244" height="190.221" filterUnits="userSpaceOnUse" color-interpolation-filters="sRGB">
<feFlood flood-opacity="0" result="BackgroundImageFix"/>
<feColorMatrix in="SourceAlpha" type="matrix" values="0 0 0 0 0 0 0 0 0 0 0 0 0 0 0 0 0 0 127 0" result="hardAlpha"/>
<feOffset dy="18"/>
<feGaussianBlur stdDeviation="10.5"/>
<feComposite in2="hardAlpha" operator="out"/>
<feColorMatrix type="matrix" values="0 0 0 0 0 0 0 0 0 0 0 0 0 0 0 0 0 0 0.21 0"/>
<feBlend mode="normal" in2="BackgroundImageFix" result="effect1_dropShadow_117_3"/>
<feBlend mode="normal" in="SourceGraphic" in2="effect1_dropShadow_117_3" result="shape"/>
</filter>
<filter id="filter21_d_117_3" x="955.311" y="347.381" width="170.378" height="190.238" filterUnits="userSpaceOnUse" color-interpolation-filters="sRGB">
<feFlood flood-opacity="0" result="BackgroundImageFix"/>
<feColorMatrix in="SourceAlpha" type="matrix" values="0 0 0 0 0 0 0 0 0 0 0 0 0 0 0 0 0 0 127 0" result="hardAlpha"/>
<feOffset dy="18"/>
<feGaussianBlur stdDeviation="10.5"/>
<feComposite in2="hardAlpha" operator="out"/>
<feColorMatrix type="matrix" values="0 0 0 0 0 0 0 0 0 0 0 0 0 0 0 0 0 0 0.21 0"/>
<feBlend mode="normal" in2="BackgroundImageFix" result="effect1_dropShadow_117_3"/>
<feBlend mode="normal" in="SourceGraphic" in2="effect1_dropShadow_117_3" result="shape"/>
</filter>
<filter id="filter22_d_117_3" x="1232.38" y="117.381" width="171.244" height="191.238" filterUnits="userSpaceOnUse" color-interpolation-filters="sRGB">
<feFlood flood-opacity="0" result="BackgroundImageFix"/>
<feColorMatrix in="SourceAlpha" type="matrix" values="0 0 0 0 0 0 0 0 0 0 0 0 0 0 0 0 0 0 127 0" result="hardAlpha"/>
<feOffset dy="18"/>
<feGaussianBlur stdDeviation="10.5"/>
<feComposite in2="hardAlpha" operator="out"/>
<feColorMatrix type="matrix" values="0 0 0 0 0 0 0 0 0 0 0 0 0 0 0 0 0 0 0.21 0"/>
<feBlend mode="normal" in2="BackgroundImageFix" result="effect1_dropShadow_117_3"/>
<feBlend mode="normal" in="SourceGraphic" in2="effect1_dropShadow_117_3" result="shape"/>
</filter>
<filter id="filter23_d_117_3" x="1298.38" y="232.381" width="171.244" height="191.238" filterUnits="userSpaceOnUse" color-interpolation-filters="sRGB">
<feFlood flood-opacity="0" result="BackgroundImageFix"/>
<feColorMatrix in="SourceAlpha" type="matrix" values="0 0 0 0 0 0 0 0 0 0 0 0 0 0 0 0 0 0 127 0" result="hardAlpha"/>
<feOffset dy="18"/>
<feGaussianBlur stdDeviation="10.5"/>
<feComposite in2="hardAlpha" operator="out"/>
<feColorMatrix type="matrix" values="0 0 0 0 0 0 0 0 0 0 0 0 0 0 0 0 0 0 0.21 0"/>
<feBlend mode="normal" in2="BackgroundImageFix" result="effect1_dropShadow_117_3"/>
<feBlend mode="normal" in="SourceGraphic" in2="effect1_dropShadow_117_3" result="shape"/>
</filter>
<filter id="filter24_d_117_3" x="1300.38" y="462.381" width="171.244" height="191.238" filterUnits="userSpaceOnUse" color-interpolation-filters="sRGB">
<feFlood flood-opacity="0" result="BackgroundImageFix"/>
<feColorMatrix in="SourceAlpha" type="matrix" values="0 0 0 0 0 0 0 0 0 0 0 0 0 0 0 0 0 0 127 0" result="hardAlpha"/>
<feOffset dy="18"/>
<feGaussianBlur stdDeviation="10.5"/>
<feComposite in2="hardAlpha" operator="out"/>
<feColorMatrix type="matrix" values="0 0 0 0 0 0 0 0 0 0 0 0 0 0 0 0 0 0 0.21 0"/>
<feBlend mode="normal" in2="BackgroundImageFix" result="effect1_dropShadow_117_3"/>
<feBlend mode="normal" in="SourceGraphic" in2="effect1_dropShadow_117_3" result="shape"/>
</filter>
<filter id="filter25_d_117_3" x="1162.38" y="463.389" width="171.244" height="190.221" filterUnits="userSpaceOnUse" color-interpolation-filters="sRGB">
<feFlood flood-opacity="0" result="BackgroundImageFix"/>
<feColorMatrix in="SourceAlpha" type="matrix" values="0 0 0 0 0 0 0 0 0 0 0 0 0 0 0 0 0 0 127 0" result="hardAlpha"/>
<feOffset dy="18"/>
<feGaussianBlur stdDeviation="10.5"/>
<feComposite in2="hardAlpha" operator="out"/>
<feColorMatrix type="matrix" values="0 0 0 0 0 0 0 0 0 0 0 0 0 0 0 0 0 0 0.21 0"/>
<feBlend mode="normal" in2="BackgroundImageFix" result="effect1_dropShadow_117_3"/>
<feBlend mode="normal" in="SourceGraphic" in2="effect1_dropShadow_117_3" result="shape"/>
</filter>
</defs>
</svg>
